<svg xmlns="http://www.w3.org/2000/svg" width="1200" height="376" viewBox="0 0 1200 376" role="img"><title>Niaga Labs by the numbers</title><defs><path id="r32" d="M332 362Q385 390 414 412Q442 433 456 458Q469 482 469 518Q469 574 432 608Q396 642 327 642Q253 642 209 604Q165 565 154 492L64 498Q76 604 144 665Q213 726 327 726Q399 726 452 700Q504 674 532 628Q559 581 559 520Q559 465 541 426Q523 388 482 354Q440 320 364 280Q271 231 220 178Q169 126 166 84H559V0H60Q60 78 84 138Q108 198 168 252Q227 306 332 362Z"/><path id="r39" d="M69 137 160 144Q172 107 204 88Q236 68 288 68Q378 68 425 141Q472 214 473 370L494 366Q468 299 416 262Q365 226 296 226Q228 226 174 257Q120 288 90 344Q60 401 60 474Q60 550 92 607Q123 664 180 695Q236 726 307 726Q436 726 500 639Q563 552 563 397Q563 204 499 94Q435 -16 288 -16Q203 -16 146 26Q89 68 69 137ZM468 472Q468 521 448 560Q429 598 392 620Q356 642 307 642Q259 642 224 620Q188 599 169 561Q150 523 150 474Q150 425 169 388Q188 351 222 331Q257 311 302 311Q351 311 388 330Q426 349 447 386Q468 422 468 472Z"/><path id="r70" d="M80 530H158L160 416L148 422Q167 480 214 511Q260 542 322 542Q398 542 450 504Q501 467 526 404Q551 341 551 265Q551 189 526 126Q501 63 450 26Q398 -12 322 -12Q281 -12 246 2Q210 16 186 42Q161 67 152 100L164 114V-150H80ZM463 265Q463 358 423 410Q383 462 314 462Q268 462 234 440Q200 417 182 373Q164 329 164 265Q164 201 182 157Q200 113 234 90Q267 68 314 68Q383 68 423 120Q463 172 463 265Z"/><path id="r75" d="M80 189V530H164V212Q164 135 192 98Q219 62 276 62Q339 62 375 102Q411 143 411 214V530H495V0H415V131L428 124Q412 59 367 24Q322 -12 254 -12Q174 -12 127 42Q80 95 80 189Z"/><path id="r62" d="M159 80 156 0H80V710H164V456Q185 492 228 517Q271 542 323 542Q392 542 444 508Q495 474 523 412Q551 349 551 265Q551 181 523 118Q495 56 444 22Q392 -12 323 -12Q268 -12 225 12Q182 36 159 80ZM463 265Q463 357 424 410Q386 462 320 462Q271 462 236 438Q201 415 182 370Q164 326 164 265Q164 205 182 160Q201 116 236 92Q270 68 318 68Q385 68 424 121Q463 174 463 265Z"/><path id="r6c" d="M80 100 81 710H165V107Q165 91 174 82Q182 74 198 74H244V0H185Q136 0 108 24Q80 49 80 100Z"/><path id="r69" d="M80 530H164V0H80ZM78 711H166V613H78Z"/><path id="r63" d="M47 265Q47 348 77 411Q107 474 162 508Q217 542 290 542Q351 542 398 520Q446 499 476 458Q506 416 515 358L427 352Q418 404 382 433Q345 462 290 462Q217 462 176 410Q135 358 135 265Q135 172 176 120Q217 68 290 68Q345 68 382 98Q418 129 427 188L515 182Q506 123 476 80Q446 36 398 12Q350 -12 290 -12Q217 -12 162 22Q107 56 77 119Q47 182 47 265Z"/><path id="rb7" d="M47 361H160V248H47Z"/><path id="r38" d="M40 195Q40 271 85 322Q130 373 208 391L210 371Q146 388 110 428Q74 467 74 531Q74 587 102 632Q131 676 182 701Q234 726 302 726Q370 726 422 701Q473 676 502 632Q530 587 530 531Q530 467 494 428Q458 388 394 371L396 391Q474 373 519 322Q564 271 564 195Q564 128 531 80Q498 33 438 8Q379 -16 302 -16Q225 -16 166 8Q106 33 73 80Q40 128 40 195ZM474 200Q474 264 431 300Q388 337 302 337Q216 337 173 300Q130 264 130 200Q130 134 176 101Q221 68 302 68Q383 68 428 101Q474 134 474 200ZM440 531Q440 583 404 612Q369 642 302 642Q235 642 200 612Q164 583 164 531Q164 475 200 446Q235 417 302 417Q369 417 404 446Q440 475 440 531Z"/><path id="r61" d="M47 132Q47 200 87 239Q127 278 214 294L402 329Q402 396 370 429Q339 462 276 462Q222 462 190 438Q157 414 145 367L56 374Q71 451 130 496Q188 542 276 542Q377 542 432 485Q486 428 486 326V107Q486 89 492 82Q499 74 514 74H535V0Q529 -1 521 -2Q513 -2 503 -2Q448 -2 425 24Q402 50 402 110L412 108Q402 57 348 22Q294 -12 226 -12Q143 -12 95 26Q47 64 47 132ZM402 218V256L230 224Q178 215 156 194Q135 174 135 140Q135 103 161 82Q187 62 234 62Q286 62 324 82Q362 103 382 138Q402 174 402 218Z"/><path id="r72" d="M80 530H154L158 396L150 399Q160 466 193 498Q226 530 283 530H335V450H284Q244 450 218 436Q191 421 178 392Q164 363 164 320V0H80Z"/><path id="r68" d="M80 710H164V413L154 415Q168 479 213 510Q258 542 324 542Q408 542 454 487Q501 432 501 341V0H417V317Q417 393 390 430Q362 468 306 468Q240 468 202 428Q164 388 164 316V0H80Z"/><path id="r76" d="M22 530H114L268 86L422 530H514L321 0H215Z"/><path id="r65" d="M47 265Q47 348 76 411Q106 474 160 508Q214 542 286 542Q355 542 408 510Q461 477 490 414Q520 351 520 264V239H135Q139 155 180 112Q220 68 290 68Q341 68 374 92Q408 115 422 157L512 150Q491 77 432 32Q372 -12 290 -12Q216 -12 161 22Q106 56 76 118Q47 181 47 265ZM286 462Q224 462 184 424Q145 386 135 313H428Q422 387 384 424Q347 462 286 462Z"/><path id="r64" d="M47 265Q47 349 74 412Q101 474 152 508Q203 542 271 542Q325 542 368 519Q412 496 434 456V710H518V0H442L439 80Q417 37 372 12Q327 -12 271 -12Q203 -12 152 22Q101 56 74 118Q47 181 47 265ZM434 265Q434 326 417 370Q400 415 368 438Q335 462 288 462Q218 462 176 410Q135 357 135 265Q135 174 176 121Q218 68 288 68Q334 68 367 92Q400 116 417 160Q434 204 434 265Z"/><path id="r6e" d="M80 530H157L160 395L150 404Q164 472 210 507Q257 542 322 542Q409 542 455 486Q501 430 501 341V0H417V317Q417 392 390 430Q363 468 304 468Q241 468 202 428Q164 389 164 317V0H80Z"/><path id="r6f" d="M47 265Q47 349 77 412Q107 474 162 508Q217 542 290 542Q362 542 417 508Q472 474 502 412Q532 349 532 265Q532 181 502 118Q472 56 417 22Q362 -12 290 -12Q217 -12 162 22Q107 56 77 118Q47 181 47 265ZM444 265Q444 357 404 410Q363 462 290 462Q217 462 176 410Q135 358 135 265Q135 172 176 120Q217 68 290 68Q363 68 404 120Q444 173 444 265Z"/><path id="r73" d="M47 167 135 173Q143 123 177 96Q211 68 276 68Q332 68 364 86Q395 104 395 142Q395 164 384 178Q374 191 346 202Q317 212 260 222Q185 235 141 256Q97 277 78 307Q60 337 60 380Q60 452 113 497Q166 542 260 542Q352 542 406 494Q460 446 473 372L385 366Q376 410 344 436Q311 462 259 462Q204 462 176 440Q148 419 148 384Q148 358 160 342Q173 325 200 314Q227 304 276 296Q357 282 402 262Q446 243 464 214Q483 186 483 142Q483 70 424 29Q366 -12 276 -12Q207 -12 156 10Q106 33 78 74Q51 114 47 167Z"/><path id="r74" d="M133 136V654H217V138Q217 103 232 88Q248 74 282 74H358V0H274Q202 0 168 33Q133 66 133 136ZM55 530H358V456H55Z"/><path id="r66" d="M272 710H356V636H278Q247 636 232 620Q216 603 216 572V0H132V578Q132 639 167 674Q202 710 272 710ZM60 530H349V456H60Z"/><path id="r2c" d="M98 0H47V113H160V14L100 -156H50Z"/><path id="r6d" d="M80 530H157L160 396L148 400Q157 443 180 475Q202 507 235 524Q268 542 308 542Q377 542 420 504Q464 467 475 398L459 399Q471 467 513 504Q555 542 622 542Q678 542 718 518Q757 495 777 450Q797 405 797 341V0H713V323Q713 395 685 432Q657 468 602 468Q565 468 538 450Q510 432 495 398Q480 364 480 317V0H396V317Q396 390 370 429Q344 468 287 468Q250 468 222 450Q194 432 179 398Q164 363 164 317V0H80Z"/><path id="r53" d="M59 227 149 233Q156 180 180 143Q204 106 244 87Q285 68 342 68Q417 68 458 97Q499 126 499 180Q499 215 483 240Q467 265 423 286Q379 307 296 328Q212 349 164 374Q117 399 96 434Q74 470 74 524Q74 583 102 629Q131 675 184 700Q238 726 310 726Q386 726 442 697Q499 668 532 617Q566 566 574 500L484 494Q478 538 456 572Q434 605 397 624Q360 642 308 642Q242 642 203 610Q164 579 164 528Q164 494 180 473Q195 452 234 436Q272 419 350 400Q438 378 490 348Q543 318 566 278Q589 239 589 186Q589 125 557 80Q525 34 468 9Q412 -16 340 -16Q259 -16 198 14Q137 45 101 100Q65 155 59 227Z"/><path id="r54" d="M246 626H25V710H553V626H332V0H246Z"/><path id="r6b" d="M80 710H164V245L422 530H534L325 305L543 0H441L268 248L164 138V0H80Z"/><path id="r4c" d="M92 710H178V40L135 84H533V0H92Z"/><path id="r7a" d="M57 84 392 456H67V530H484V446L149 74H492V0H57Z"/><path id="r79" d="M103 -76H164Q191 -76 204 -68Q218 -59 226 -40L245 10H216L22 530H114L272 88L423 530H515L300 -67Q285 -110 255 -130Q225 -150 172 -150H103Z"/><path id="r67" d="M62 -8 150 -2Q163 -42 194 -62Q225 -82 284 -82Q357 -82 395 -53Q433 -24 433 34V120Q413 78 372 53Q330 28 278 28Q211 28 158 60Q106 93 76 152Q47 210 47 285Q47 360 76 418Q105 477 156 510Q208 542 274 542Q330 542 374 516Q419 490 437 446V530H517V36Q517 -57 455 -110Q393 -162 284 -162Q228 -162 182 -143Q135 -124 104 -89Q73 -54 62 -8ZM433 285Q434 339 416 379Q397 419 362 440Q328 462 282 462Q213 462 174 414Q135 367 135 285Q135 203 174 156Q214 108 282 108Q327 108 361 130Q395 151 414 191Q433 231 433 285Z"/></defs><defs><path id="m72" d="M75 532H172L176 391L167 394Q178 465 211 499Q244 532 302 532H353V437H302Q261 437 235 424Q208 410 195 383Q181 356 181 314V0H75Z"/><path id="m65" d="M44 266Q44 349 75 412Q106 476 162 510Q218 544 293 544Q366 544 421 511Q476 477 506 414Q537 350 537 262V235H155Q158 159 195 119Q233 79 297 79Q344 79 375 100Q406 121 419 160L529 153Q508 77 446 33Q383 -12 296 -12Q220 -12 163 22Q106 56 75 119Q44 182 44 266ZM293 454Q236 454 200 418Q163 382 155 315H424Q419 384 385 419Q350 454 293 454Z"/><path id="m70" d="M75 532H175L178 418L166 424Q185 482 231 513Q277 544 338 544Q413 544 465 507Q516 470 541 407Q566 343 566 266Q566 189 541 125Q516 62 464 25Q413 -12 338 -12Q298 -12 263 2Q228 16 203 42Q179 68 169 102L181 114V-150H75ZM456 266Q456 354 419 403Q383 452 319 452Q277 452 245 431Q214 410 198 368Q181 327 181 266Q181 205 198 164Q214 122 245 101Q276 80 319 80Q383 80 419 129Q456 178 456 266Z"/><path id="m6f" d="M44 266Q44 350 76 413Q107 476 164 510Q221 544 297 544Q372 544 429 510Q486 476 518 413Q549 350 549 266Q549 182 518 119Q486 56 429 22Q372 -12 297 -12Q221 -12 164 22Q107 56 76 119Q44 182 44 266ZM439 266Q439 353 402 403Q364 452 297 452Q230 452 192 403Q154 354 154 266Q154 178 192 129Q230 80 297 80Q364 80 402 129Q439 179 439 266Z"/><path id="m73" d="M44 168 154 173Q161 127 192 102Q224 77 283 77Q334 77 362 93Q391 110 391 144Q391 164 381 177Q371 190 344 199Q317 209 264 218Q186 232 141 253Q95 273 76 304Q57 334 57 379Q57 453 113 498Q169 544 270 544Q368 544 424 495Q481 447 493 369L384 363Q376 406 346 430Q317 455 269 455Q219 455 193 435Q167 416 167 383Q167 359 179 344Q190 329 216 319Q241 310 286 303Q369 289 415 269Q461 249 481 220Q501 190 501 145Q501 71 440 30Q380 -12 283 -12Q210 -12 157 11Q105 33 76 74Q48 114 44 168Z"/><path id="m69" d="M75 532H181V0H75ZM73 715H183V609H73Z"/><path id="m74" d="M131 144V657H237V152Q237 116 253 101Q268 87 302 87H378V0H279Q203 0 167 35Q131 70 131 144ZM50 532H378V445H50Z"/><path id="m2c" d="M100 0H44V126H174V15L111 -157H50Z"/><path id="m6e" d="M75 532H172L176 390L163 397Q176 471 222 508Q269 544 336 544Q422 544 469 488Q516 433 516 342V0H410V310Q410 382 386 419Q362 455 307 455Q249 455 215 417Q181 379 181 310V0H75Z"/><path id="m67" d="M60 -9 170 -2Q181 -38 209 -56Q238 -74 292 -74Q359 -74 394 -46Q428 -18 428 39V116Q408 75 367 51Q325 27 273 27Q207 27 155 59Q103 92 73 150Q44 209 44 285Q44 361 73 420Q102 478 153 511Q204 544 270 544Q326 544 370 518Q413 493 432 448V532H535V42Q535 -55 470 -109Q405 -162 292 -162Q230 -162 181 -143Q133 -124 102 -90Q71 -55 60 -9ZM429 286Q429 337 412 375Q396 413 364 434Q332 454 290 454Q227 454 190 409Q154 363 154 286Q154 208 191 162Q228 117 290 117Q332 117 363 138Q394 158 411 196Q429 234 429 286Z"/><path id="m61" d="M44 133Q44 201 85 240Q126 279 214 296L397 331Q397 393 368 424Q340 454 283 454Q233 454 203 432Q173 409 163 365L53 372Q68 453 129 498Q189 544 283 544Q390 544 447 487Q503 430 503 325V118Q503 99 510 91Q517 84 532 84H551V0Q544 -1 534 -2Q523 -3 512 -3Q457 -3 431 23Q404 50 404 113L415 108Q404 56 351 22Q298 -12 226 -12Q143 -12 93 26Q44 65 44 133ZM397 217V251L242 221Q195 212 175 193Q154 174 154 143Q154 109 178 90Q201 72 244 72Q291 72 326 90Q360 109 379 142Q397 175 397 217Z"/><path id="m47" d="M46 354Q46 461 85 546Q125 630 198 678Q271 726 371 726Q496 726 569 662Q642 597 664 487L551 481Q538 551 495 589Q451 627 372 627Q265 627 212 550Q158 474 158 354Q158 274 181 213Q204 152 252 117Q300 83 372 83Q428 83 471 108Q514 132 537 176Q561 219 563 271H373V362H666V0H592L585 160L599 148Q588 100 554 63Q521 26 472 5Q422 -16 367 -16Q268 -16 196 31Q123 78 85 162Q46 246 46 354Z"/><path id="m76" d="M22 532H135L280 108L425 532H539L345 0H216Z"/><path id="m63" d="M44 266Q44 349 76 412Q107 476 164 510Q221 544 297 544Q361 544 412 521Q462 499 494 455Q526 412 534 351L424 345Q416 396 382 424Q348 452 297 452Q230 452 192 403Q154 354 154 266Q154 178 192 129Q230 80 297 80Q348 80 382 109Q416 138 424 195L534 189Q526 128 494 83Q463 38 412 13Q361 -12 297 -12Q221 -12 164 22Q107 56 76 120Q44 183 44 266Z"/><path id="m2b" d="M236 530H329V54H236ZM44 338H520V246H44Z"/><path id="m4e" d="M86 710H223L551 131V710H659V0H517L194 566V0H86Z"/><path id="m78" d="M240 272 55 532H174L304 341L432 532H552L369 270L560 0H442L305 203L168 0H47Z"/><path id="m2e" d="M44 126H174V0H44Z"/><path id="m6a" d="M-4 -63H44Q63 -63 76 -58Q89 -53 96 -40Q102 -26 102 -5V532H209V-9Q209 -85 174 -118Q140 -150 60 -150H-4ZM100 715H211V609H100Z"/><path id="m50" d="M86 710H351Q431 710 489 684Q547 657 578 608Q609 558 609 489Q609 420 578 370Q547 319 489 292Q431 266 351 266H194V0H86ZM497 489Q497 550 459 580Q421 611 348 611H194V364H348Q421 364 459 396Q497 428 497 489Z"/><path id="m53" d="M56 229 167 236Q174 186 196 152Q218 117 256 100Q293 82 346 82Q416 82 453 108Q491 135 491 184Q491 216 476 239Q461 262 420 281Q380 300 303 319Q215 340 166 365Q116 390 94 427Q71 464 71 520Q71 580 100 627Q130 674 186 700Q241 726 317 726Q396 726 454 696Q512 667 546 615Q580 563 588 495L478 489Q472 530 452 562Q432 593 397 611Q363 628 315 628Q254 628 218 599Q182 571 182 524Q182 493 197 473Q211 453 247 438Q283 423 355 406Q446 385 500 355Q555 325 578 284Q602 244 602 190Q602 128 570 81Q537 35 479 9Q420 -16 344 -16Q260 -16 198 15Q135 45 98 101Q62 156 56 229Z"/><path id="m51" d="M374 -16Q274 -16 199 32Q125 81 86 165Q46 249 46 354Q46 460 85 544Q123 629 198 677Q272 726 374 726Q478 726 552 677Q627 629 665 544Q703 460 703 354Q703 256 668 176Q634 96 570 46L660 -67H556L499 7Q447 -16 374 -16ZM435 92 334 219H437L505 129Q548 165 570 221Q591 277 591 354Q591 431 567 492Q543 554 494 591Q445 627 374 627Q304 627 255 591Q207 554 182 492Q158 431 158 354Q158 278 182 217Q207 155 256 119Q305 83 374 83Q415 83 435 92Z"/><path id="m4c" d="M86 710H194V40L137 99H540V0H86Z"/><path id="m68" d="M75 710H181V412L168 414Q181 479 226 511Q271 544 337 544Q422 544 469 489Q516 434 516 342V0H410V314Q410 385 385 420Q360 455 309 455Q249 455 215 418Q181 380 181 312V0H75Z"/><path id="m6d" d="M75 532H172L175 400L163 404Q172 447 195 478Q217 510 250 527Q283 544 322 544Q390 544 433 506Q476 468 487 400L470 400Q483 469 525 506Q567 544 633 544Q688 544 728 521Q768 497 789 452Q809 407 809 342V0H703V316Q703 386 678 420Q653 455 602 455Q569 455 544 438Q519 421 506 389Q492 356 492 312V0H391V312Q391 382 368 418Q344 455 292 455Q258 455 233 438Q208 421 195 388Q181 356 181 312V0H75Z"/><path id="m6b" d="M75 710H181V269L420 532H554L346 308L562 0H440L275 242L181 142V0H75Z"/><path id="m6c" d="M75 113 76 710H182V123Q182 105 191 96Q201 87 218 87H261V0H192Q137 0 106 28Q75 55 75 113Z"/><path id="m75" d="M75 190V532H181V217Q181 145 206 111Q231 77 282 77Q340 77 372 115Q405 152 405 220V532H511V0H412L410 139L425 133Q411 63 366 25Q321 -12 250 -12Q169 -12 122 41Q75 95 75 190Z"/><path id="m64" d="M44 266Q44 350 71 413Q98 476 149 510Q199 544 267 544Q322 544 365 521Q407 498 429 457V710H535V0H437L434 80Q412 37 367 12Q323 -12 267 -12Q199 -12 149 22Q98 56 71 119Q44 182 44 266ZM429 266Q429 325 414 367Q398 409 368 430Q338 452 295 452Q230 452 192 402Q154 353 154 266Q154 180 192 130Q231 80 295 80Q337 80 368 102Q398 124 414 166Q429 207 429 266Z"/><path id="m79" d="M106 -63H170Q196 -63 210 -55Q223 -47 230 -28L247 16H214L22 532H134L280 114L420 532H532L320 -62Q304 -108 272 -129Q241 -150 186 -150H106Z"/></defs><defs><path id="b36" d="M57 308Q57 431 88 525Q119 618 185 672Q250 726 351 726Q448 726 507 678Q566 631 587 546L464 536Q451 575 424 595Q398 614 350 614Q272 614 230 548Q187 482 184 348L164 352Q181 402 230 436Q280 470 352 470Q423 470 477 441Q531 412 561 358Q591 304 591 234Q591 157 557 100Q524 43 464 14Q404 -16 326 -16Q195 -16 126 68Q57 153 57 308ZM460 234Q460 295 424 333Q388 370 331 370Q290 370 259 354Q227 337 209 306Q190 274 190 234Q190 192 207 160Q223 129 254 111Q285 93 326 93Q386 93 423 131Q460 169 460 234Z"/><path id="b35" d="M57 191 190 198Q198 148 233 123Q269 98 326 98Q391 98 427 134Q464 169 464 234Q464 297 427 334Q390 371 325 371Q280 371 247 352Q213 332 198 300H66L115 710H550V597H228L200 371L183 386Q207 428 253 451Q299 473 360 473Q431 473 485 442Q539 411 569 357Q598 302 598 234Q598 159 564 102Q531 46 469 15Q408 -16 326 -16Q204 -16 135 40Q66 96 57 191Z"/><path id="b31" d="M190 487H38V586H99Q143 586 168 597Q194 609 206 636Q217 663 217 710H320V0H190Z"/><path id="b30" d="M48 354Q48 467 84 551Q121 635 187 681Q254 726 344 726Q434 726 501 681Q567 636 603 552Q639 468 639 354Q639 241 604 157Q568 74 501 29Q434 -16 344 -16Q254 -16 187 29Q120 74 84 157Q48 241 48 354ZM505 354Q505 438 486 496Q468 554 432 583Q396 613 344 613Q292 613 256 583Q220 554 202 496Q183 438 183 354Q183 271 202 213Q220 156 256 126Q292 97 344 97Q396 97 432 126Q468 156 486 213Q505 271 505 354Z"/><path id="b2b" d="M226 527H333V51H226ZM41 343H517V236H41Z"/><path id="b33" d="M47 200 180 206Q186 151 221 124Q256 97 317 97Q380 97 419 124Q458 152 458 206Q458 244 441 269Q423 294 391 307Q359 320 315 320H254V423H315Q369 423 402 446Q435 468 435 517Q435 563 406 588Q376 613 318 613Q260 613 230 590Q199 567 193 526L60 533Q71 622 138 674Q206 726 318 726Q437 726 503 674Q569 621 569 529Q569 465 527 424Q485 383 407 369V386Q495 373 544 324Q593 275 593 199Q593 132 559 84Q525 35 462 10Q400 -16 317 -16Q192 -16 122 42Q52 100 47 200Z"/><path id="b37" d="M420 597H37V710H555V604Q433 466 375 324Q318 182 318 0H186Q186 161 248 314Q310 468 420 597Z"/><path id="b32" d="M318 373Q370 401 397 420Q425 440 437 461Q450 482 450 512Q450 558 420 585Q390 613 335 613Q275 613 239 579Q203 545 195 480L61 488Q71 600 143 663Q214 726 335 726Q412 726 468 699Q525 673 554 625Q584 577 584 514Q584 459 566 421Q547 383 508 351Q468 319 394 280Q308 234 263 191Q218 147 215 113H584V0H59Q59 87 83 152Q108 216 164 269Q220 322 318 373Z"/></defs><defs><path id="c4f" d="M37 354Q37 472 68 556Q98 640 157 683Q216 726 300 726Q384 726 443 683Q502 640 532 556Q563 472 563 354Q563 236 532 153Q502 70 443 27Q384 -16 300 -16Q216 -16 157 27Q98 70 68 153Q37 236 37 354ZM467 354Q467 445 447 508Q428 572 391 604Q353 637 300 637Q247 637 209 604Q172 572 153 508Q133 445 133 354Q133 263 153 200Q172 138 209 105Q247 73 300 73Q353 73 391 105Q428 138 447 200Q467 263 467 354Z"/><path id="c52" d="M69 710H287Q399 710 464 653Q529 597 529 498Q529 449 507 410Q484 370 449 347Q413 324 372 321L368 335Q443 332 478 301Q512 271 518 203L536 0H443L426 190Q421 240 393 263Q365 285 303 285H161V0H69ZM433 496Q433 557 395 590Q356 623 286 623H161V371H286Q356 371 395 404Q433 437 433 496Z"/><path id="c47" d="M37 354Q37 468 69 552Q100 636 160 681Q220 726 302 726Q399 726 464 664Q529 601 553 495L456 489Q439 558 401 597Q362 637 302 637Q249 637 211 604Q173 571 153 508Q133 444 133 354Q133 264 154 201Q174 138 213 106Q252 73 307 73Q353 73 389 98Q425 124 446 170Q467 216 469 273H304V359H555V0H473L468 166L497 156Q474 74 426 29Q377 -16 299 -16Q222 -16 162 27Q103 69 70 152Q37 236 37 354Z"/><path id="c4e" d="M69 710H192L439 133V710H531V0H408L161 577V0H69Z"/><path id="c49" d="M79 87H254V623H79V710H521V623H346V87H521V0H79Z"/><path id="c41" d="M240 710H360L575 0H480L300 616L120 0H25ZM168 276H432L462 191H138Z"/><path id="c51" d="M259 208H357L513 -70H415ZM37 354Q37 472 68 556Q98 640 157 683Q216 726 300 726Q384 726 443 683Q502 640 532 556Q563 472 563 354Q563 236 532 153Q502 70 443 27Q384 -16 300 -16Q216 -16 157 27Q98 70 68 153Q37 236 37 354ZM467 354Q467 445 447 508Q428 572 391 604Q353 637 300 637Q247 637 209 604Q172 572 153 508Q133 445 133 354Q133 263 153 200Q172 138 209 105Q247 73 300 73Q353 73 391 105Q428 138 447 200Q467 263 467 354Z"/><path id="c55" d="M59 248V710H151V246Q151 162 189 117Q228 73 300 73Q372 73 411 117Q449 162 449 246V710H541V248Q541 125 477 54Q413 -16 300 -16Q187 -16 123 54Q59 125 59 248Z"/><path id="c54" d="M254 623H40V710H560V623H346V0H254Z"/><path id="c43" d="M37 354Q37 469 68 552Q98 636 158 681Q218 726 302 726Q398 726 464 664Q530 601 552 489L454 483Q438 558 398 598Q358 637 302 637Q248 637 210 604Q172 572 153 508Q133 445 133 354Q133 264 153 201Q172 138 210 105Q248 73 302 73Q364 73 405 116Q446 159 460 242L557 237Q538 118 471 51Q404 -16 302 -16Q218 -16 158 29Q98 74 68 157Q37 240 37 354Z"/><path id="c6f" d="M57 266Q57 350 87 412Q117 475 172 509Q227 543 300 543Q372 543 428 509Q483 475 513 412Q543 350 543 266Q543 181 513 119Q483 56 428 22Q372 -12 300 -12Q227 -12 172 22Q117 56 87 119Q57 181 57 266ZM449 266Q449 356 410 407Q371 458 300 458Q229 458 190 407Q151 356 151 266Q151 174 190 124Q229 73 300 73Q371 73 410 124Q449 175 449 266Z"/><path id="c75" d="M89 188V531H179V213Q179 138 205 102Q232 67 286 67Q346 67 381 106Q415 145 415 216V531H505V0H420L419 135L433 128Q418 61 373 25Q328 -12 259 -12Q181 -12 135 41Q89 94 89 188Z"/><path id="c6e" d="M95 531H177L180 394L170 403Q184 472 230 507Q276 543 341 543Q427 543 473 487Q518 431 518 342V0H428V317Q428 390 402 427Q377 464 320 464Q259 464 222 426Q185 387 185 316V0H95Z"/><path id="c74" d="M221 150V670H311V151Q311 114 328 96Q345 79 381 79H522V0H377Q299 0 260 37Q221 74 221 150ZM49 531H522V452H49Z"/><path id="c65" d="M64 266Q64 349 94 412Q123 475 178 509Q232 543 304 543Q374 543 428 510Q482 478 512 415Q542 352 542 264V239H158Q162 157 202 115Q241 73 308 73Q358 73 390 96Q423 118 436 160L532 152Q511 78 451 33Q391 -12 308 -12Q234 -12 179 22Q123 56 94 119Q64 181 64 266ZM304 458Q245 458 207 422Q168 385 158 314H443Q437 386 400 422Q363 458 304 458Z"/><path id="c64" d="M50 266Q50 350 77 412Q104 475 155 509Q206 543 274 543Q326 543 368 518Q411 494 432 457V710H522V0H440L437 80Q414 36 371 12Q329 -12 274 -12Q206 -12 155 22Q104 56 77 119Q50 181 50 266ZM432 266Q432 325 414 369Q396 412 363 435Q329 458 282 458Q218 458 181 407Q144 356 144 266Q144 176 181 124Q218 73 283 73Q330 73 363 96Q396 120 414 163Q432 207 432 266Z"/><path id="c31" d="M281 519H96V597H190Q228 597 252 609Q276 620 287 644Q297 669 297 710H373V0H281ZM58 87H542V0H58Z"/><path id="c33" d="M49 185 144 191Q150 131 190 102Q230 73 295 73Q364 73 409 104Q455 134 455 199Q455 244 435 274Q416 303 380 318Q345 332 300 332H243V420H300Q357 420 394 446Q430 473 430 528Q430 582 396 609Q362 637 299 637Q235 637 201 612Q167 587 160 539L64 545Q74 628 136 677Q197 726 299 726Q368 726 419 702Q471 679 499 635Q526 592 526 533Q526 467 485 427Q444 386 363 372V390Q450 379 501 328Q551 276 551 198Q551 131 518 83Q485 35 427 10Q369 -16 295 -16Q181 -16 118 39Q54 94 49 185Z"/><path id="c53" d="M44 228 139 234Q146 183 169 146Q192 110 228 91Q264 73 312 73Q360 73 393 85Q426 97 443 121Q460 145 460 178Q460 213 445 237Q429 261 388 282Q346 303 267 325Q192 346 147 372Q102 397 81 433Q60 469 60 523Q60 582 89 629Q118 675 171 700Q225 726 298 726Q368 726 421 697Q474 668 505 617Q536 566 544 499L448 493Q443 536 424 569Q405 601 373 619Q341 637 296 637Q231 637 194 607Q156 577 156 527Q156 494 170 473Q185 452 219 437Q254 421 322 402Q409 378 460 348Q510 319 533 277Q556 236 556 176Q556 120 525 76Q494 32 439 8Q383 -16 310 -16Q236 -16 177 15Q119 45 84 100Q50 156 44 228Z"/><path id="c70" d="M79 531H163L165 410L153 417Q172 478 218 510Q264 543 326 543Q400 543 451 506Q501 468 526 405Q551 342 551 266Q551 189 526 126Q501 63 451 25Q400 -12 326 -12Q285 -12 250 2Q215 16 191 42Q166 67 156 101L169 115V-150H79ZM457 266Q457 357 419 408Q381 458 314 458Q270 458 237 436Q204 414 186 371Q169 328 169 266Q169 203 186 160Q204 117 236 95Q269 73 314 73Q381 73 419 123Q457 174 457 266Z"/><path id="c32" d="M318 363Q371 391 400 413Q428 434 441 458Q454 482 454 517Q454 572 419 605Q384 638 317 638Q245 638 202 600Q159 562 148 490L53 497Q65 604 133 665Q202 726 317 726Q389 726 442 700Q495 674 522 627Q550 580 550 519Q550 464 532 426Q514 387 473 353Q432 319 356 280Q264 231 214 180Q164 129 162 89H551V0H49Q49 79 73 140Q97 200 156 254Q214 308 318 363Z"/><path id="c30" d="M49 354Q49 468 80 552Q110 636 167 681Q224 726 300 726Q376 726 433 681Q490 636 520 552Q551 468 551 354Q551 240 520 156Q490 73 434 28Q377 -16 300 -16Q223 -16 166 28Q110 73 80 156Q49 240 49 354ZM455 354Q455 441 436 505Q418 569 383 603Q348 637 300 637Q252 637 217 603Q182 569 164 505Q145 441 145 354Q145 267 164 204Q182 140 217 106Q252 73 300 73Q348 73 383 106Q418 140 436 204Q455 267 455 354ZM398 610 478 606 202 100 122 104Z"/><path id="c36" d="M48 301Q48 425 76 520Q104 615 166 670Q229 726 330 726Q421 726 475 681Q530 636 552 556L456 548Q443 592 413 615Q384 637 330 637Q272 637 231 605Q189 572 167 505Q144 439 142 341L123 345Q140 401 193 440Q247 478 320 478Q389 478 441 448Q494 418 523 363Q552 308 552 236Q552 159 521 102Q490 45 433 14Q376 -16 302 -16Q181 -16 114 66Q48 149 48 301ZM456 236Q456 307 416 350Q377 392 311 392Q264 392 228 373Q191 354 169 318Q148 283 148 236Q148 188 167 151Q186 114 221 94Q257 73 304 73Q373 73 414 116Q456 160 456 236Z"/><path id="c66" d="M379 710H531V631H381Q350 631 335 613Q319 595 319 562V0H229V562Q229 635 266 672Q303 710 379 710ZM69 531H522V452H69Z"/><path id="c72" d="M225 531H297L306 397L297 399Q307 465 340 498Q374 531 431 531H542V450H434Q395 450 368 435Q342 420 328 391Q315 361 315 319V0H225ZM89 79H482V0H89ZM89 531H274V452H89Z"/><path id="c6d" d="M38 531H119L122 413L112 415Q121 474 152 509Q182 543 227 543Q273 543 299 509Q325 475 331 409H320Q330 471 361 507Q392 543 440 543Q504 543 533 498Q562 453 562 351V0H472V340Q472 408 458 436Q444 464 414 464Q392 464 377 451Q362 437 353 409Q345 381 345 338V0H255V340Q255 406 241 435Q228 464 196 464Q175 464 160 451Q144 437 136 409Q128 381 128 338V0H38Z"/><path id="c69" d="M290 531H380V0H290ZM78 79H562V0H78ZM88 531H377V452H88ZM283 712H376V612H283Z"/><path id="c48" d="M66 710H158V366L115 400H485L442 366V710H534V0H442V348L485 313H115L158 348V0H66Z"/><path id="c62" d="M163 80 160 0H78V710H168V457Q189 494 232 518Q274 543 326 543Q394 543 445 509Q496 475 523 412Q550 350 550 266Q550 181 523 119Q496 56 445 22Q394 -12 326 -12Q271 -12 229 12Q186 36 163 80ZM456 266Q456 356 419 407Q382 458 318 458Q271 458 237 435Q204 412 186 369Q168 325 168 266Q168 207 186 163Q204 120 237 96Q270 73 317 73Q382 73 419 124Q456 176 456 266Z"/><path id="c61" d="M53 134Q53 200 93 238Q134 276 220 293L396 329Q396 394 367 426Q338 459 282 459Q230 459 199 435Q169 412 157 367L63 374Q78 452 136 497Q193 543 282 543Q379 543 432 485Q486 428 486 326V111Q486 93 493 86Q501 79 518 79H551V0Q534 -2 506 -2Q452 -2 425 24Q399 51 398 109H413Q404 57 351 22Q299 -12 230 -12Q180 -12 140 6Q100 24 76 58Q53 91 53 134ZM396 209V254L239 223Q188 213 168 194Q147 174 147 142Q147 106 171 86Q196 66 239 66Q290 66 325 84Q361 102 378 134Q396 166 396 209Z"/><path id="c68" d="M99 710H189V414L178 418Q193 481 238 512Q282 543 346 543Q429 543 475 488Q521 433 521 342V0H432V317Q432 392 405 428Q379 464 324 464Q262 464 225 425Q189 386 189 315V0H99Z"/><path id="c77" d="M19 531H116L181 103L254 456H346L419 103L484 531H581L477 0H369L300 321L231 0H124Z"/><path id="c6c" d="M222 631H98V710H227Q302 710 341 672Q379 633 379 558V0H290V564Q290 596 272 614Q254 631 222 631ZM78 79H562V0H78Z"/><path id="c63" d="M68 266Q68 349 98 412Q128 475 184 509Q240 543 313 543Q373 543 420 521Q466 499 497 457Q527 415 538 355L444 349Q432 401 398 430Q363 458 313 458Q243 458 202 407Q162 356 162 266Q162 175 202 124Q242 73 313 73Q365 73 400 103Q436 134 448 191L542 185Q525 95 464 41Q402 -12 313 -12Q240 -12 184 22Q128 56 98 119Q68 182 68 266Z"/><path id="c2d" d="M148 332H452V250H148Z"/><path id="c73" d="M79 167 172 173Q180 125 215 99Q250 72 310 72Q368 72 398 89Q429 106 429 139Q429 162 418 176Q408 190 379 200Q350 211 293 221Q217 234 174 255Q130 276 111 307Q93 337 93 382Q93 428 116 465Q140 501 186 522Q232 543 295 543Q359 543 405 520Q451 497 478 458Q504 420 512 371L419 365Q410 408 378 433Q345 459 294 459Q241 459 213 437Q184 416 184 382Q184 356 197 341Q210 326 238 316Q265 307 316 297Q396 284 441 264Q485 244 503 215Q521 185 521 139Q521 70 462 29Q403 -12 310 -12Q242 -12 192 12Q141 35 112 76Q83 116 79 167Z"/><path id="c2e" d="M238 124H362V0H238Z"/><path id="c67" d="M74 -8 168 -2Q181 -40 211 -59Q241 -79 297 -79Q368 -79 404 -50Q441 -21 441 36V118Q421 77 381 52Q340 28 288 28Q221 28 169 60Q117 93 88 151Q59 210 59 285Q59 360 88 419Q116 478 167 510Q218 543 284 543Q339 543 383 517Q426 492 445 447L445 531H531V41Q531 -55 469 -109Q407 -162 297 -162Q240 -162 194 -143Q147 -124 116 -89Q86 -54 74 -8ZM441 285Q442 338 424 377Q406 416 373 437Q340 458 296 458Q229 458 191 412Q153 365 153 285Q153 204 191 158Q230 111 296 111Q339 111 372 132Q405 153 423 192Q441 232 441 285Z"/></defs><rect x="0.5" y="0.5" width="383" height="149" rx="16" fill="#0B1F3A" stroke="#1E3A5F"/><rect x="28" y="30" width="4" height="40" rx="2" fill="#0F8B8D"/><g fill="#FFFFFF" transform="translate(46 68) scale(0.048 -0.048)"><use href="#b36"/><use href="#b35" x="648"/></g><g fill="#5FC3C5" transform="translate(331.4 36) scale(0.013 -0.013)"><use href="#c4f"/><use href="#c52" x="723"/><use href="#c47" x="1446"/></g><g fill="#DCE5EE" transform="translate(28 104) scale(0.02 -0.02)"><use href="#m72"/><use href="#m65" x="397"/><use href="#m70" x="978"/><use href="#m6f" x="1589"/><use href="#m73" x="2182"/><use href="#m69" x="2727"/><use href="#m74" x="2983"/><use href="#m6f" x="3395"/><use href="#m72" x="3988"/><use href="#m69" x="4385"/><use href="#m65" x="4641"/><use href="#m73" x="5222"/><use href="#m2c" x="5767"/><use href="#m6f" x="6228"/><use href="#m6e" x="6821"/><use href="#m65" x="7412"/><use href="#m6f" x="8236"/><use href="#m72" x="8829"/><use href="#m67" x="9226"/><use href="#m61" x="9836"/><use href="#m6e" x="10420"/><use href="#m69" x="11011"/><use href="#m73" x="11267"/><use href="#m61" x="11812"/><use href="#m74" x="12396"/><use href="#m69" x="12808"/><use href="#m6f" x="13064"/><use href="#m6e" x="13657"/></g><g fill="#8FA3B8" transform="translate(28 128) scale(0.017 -0.017)"><use href="#r32"/><use href="#r39" x="619"/><use href="#r70" x="1493"/><use href="#r75" x="2091"/><use href="#r62" x="2666"/><use href="#r6c" x="3264"/><use href="#r69" x="3548"/><use href="#r63" x="3792"/><use href="#rb7" x="4594"/><use href="#r38" x="5051"/><use href="#r61" x="5905"/><use href="#r72" x="6475"/><use href="#r63" x="6857"/><use href="#r68" x="7409"/><use href="#r69" x="7990"/><use href="#r76" x="8234"/><use href="#r65" x="8770"/><use href="#r64" x="9337"/></g><rect x="408.5" y="0.5" width="383" height="149" rx="16" fill="#0B1F3A" stroke="#1E3A5F"/><rect x="436" y="30" width="4" height="40" rx="2" fill="#0F8B8D"/><g fill="#FFFFFF" transform="translate(454 68) scale(0.048 -0.048)"><use href="#b31"/><use href="#b30" x="427"/><use href="#b2b" x="1351"/><use href="#b33" x="2146"/></g><g fill="#5FC3C5" transform="translate(720.6 36) scale(0.013 -0.013)"><use href="#c4e"/><use href="#c49" x="723"/><use href="#c41" x="1446"/><use href="#c47" x="2169"/><use href="#c41" x="2892"/></g><g fill="#DCE5EE" transform="translate(436 104) scale(0.02 -0.02)"><use href="#m47"/><use href="#m6f" x="717"/><use href="#m73" x="1553"/><use href="#m65" x="2098"/><use href="#m72" x="2679"/><use href="#m76" x="3076"/><use href="#m69" x="3636"/><use href="#m63" x="3892"/><use href="#m65" x="4460"/><use href="#m73" x="5041"/><use href="#m2b" x="5829"/><use href="#m4e" x="6636"/><use href="#m65" x="7381"/><use href="#m78" x="7962"/><use href="#m74" x="8569"/><use href="#m2e" x="8981"/><use href="#m6a" x="9199"/><use href="#m73" x="9483"/><use href="#m61" x="10271"/><use href="#m70" x="10855"/><use href="#m70" x="11466"/><use href="#m73" x="12077"/></g><g fill="#8FA3B8" transform="translate(436 128) scale(0.017 -0.017)"><use href="#r62"/><use href="#r65" x="598"/><use href="#r68" x="1165"/><use href="#r69" x="1746"/><use href="#r6e" x="1990"/><use href="#r64" x="2571"/><use href="#r6f" x="3419"/><use href="#r6e" x="3998"/><use href="#r65" x="4579"/><use href="#r73" x="5396"/><use href="#r74" x="5926"/><use href="#r6f" x="6321"/><use href="#r72" x="6900"/><use href="#r65" x="7282"/><use href="#r66" x="7849"/><use href="#r72" x="8247"/><use href="#r6f" x="8629"/><use href="#r6e" x="9208"/><use href="#r74" x="9789"/></g><rect x="816.5" y="0.5" width="383" height="149" rx="16" fill="#0B1F3A" stroke="#1E3A5F"/><rect x="844" y="30" width="4" height="40" rx="2" fill="#0F8B8D"/><g fill="#FFFFFF" transform="translate(862 68) scale(0.048 -0.048)"><use href="#b31"/><use href="#b37" x="427"/></g><g fill="#5FC3C5" transform="translate(1128.6 36) scale(0.013 -0.013)"><use href="#c4e"/><use href="#c49" x="723"/><use href="#c41" x="1446"/><use href="#c47" x="2169"/><use href="#c41" x="2892"/></g><g fill="#DCE5EE" transform="translate(844 104) scale(0.02 -0.02)"><use href="#m50"/><use href="#m6f" x="657"/><use href="#m73" x="1250"/><use href="#m74" x="1795"/><use href="#m67" x="2207"/><use href="#m72" x="2817"/><use href="#m65" x="3214"/><use href="#m53" x="3795"/><use href="#m51" x="4453"/><use href="#m4c" x="5202"/><use href="#m73" x="6028"/><use href="#m63" x="6573"/><use href="#m68" x="7141"/><use href="#m65" x="7732"/><use href="#m6d" x="8313"/><use href="#m61" x="9198"/><use href="#m73" x="9782"/></g><g fill="#8FA3B8" transform="translate(844 128) scale(0.017 -0.017)"><use href="#r6f"/><use href="#r6e" x="579"/><use href="#r65" x="1160"/><use href="#r64" x="1977"/><use href="#r61" x="2575"/><use href="#r74" x="3145"/><use href="#r61" x="3540"/><use href="#r62" x="4110"/><use href="#r61" x="4708"/><use href="#r73" x="5278"/><use href="#r65" x="5808"/><use href="#r2c" x="6375"/><use href="#r73" x="6832"/><use href="#r63" x="7362"/><use href="#r68" x="7914"/><use href="#r65" x="8495"/><use href="#r6d" x="9062"/><use href="#r61" x="9939"/><use href="#r70" x="10759"/><use href="#r65" x="11357"/><use href="#r72" x="11924"/><use href="#r73" x="12556"/><use href="#r65" x="13086"/><use href="#r72" x="13653"/><use href="#r76" x="14035"/><use href="#r69" x="14571"/><use href="#r63" x="14815"/><use href="#r65" x="15367"/></g><rect x="0.5" y="174.5" width="383" height="149" rx="16" fill="#0B1F3A" stroke="#1E3A5F"/><rect x="28" y="204" width="4" height="40" rx="2" fill="#0F8B8D"/><g fill="#FFFFFF" transform="translate(46 242) scale(0.048 -0.048)"><use href="#b32"/><use href="#b2b" x="878"/><use href="#b31" x="1673"/></g><g fill="#5FC3C5" transform="translate(312.6 210) scale(0.013 -0.013)"><use href="#c4e"/><use href="#c49" x="723"/><use href="#c41" x="1446"/><use href="#c47" x="2169"/><use href="#c41" x="2892"/></g><g fill="#DCE5EE" transform="translate(28 278) scale(0.02 -0.02)"><use href="#m6d"/><use href="#m61" x="885"/><use href="#m72" x="1469"/><use href="#m6b" x="1866"/><use href="#m65" x="2475"/><use href="#m74" x="3056"/><use href="#m70" x="3468"/><use href="#m6c" x="4079"/><use href="#m61" x="4378"/><use href="#m63" x="4962"/><use href="#m65" x="5530"/><use href="#m73" x="6111"/></g><g fill="#8FA3B8" transform="translate(28 302) scale(0.017 -0.017)"><use href="#r53"/><use href="#r68" x="648"/><use href="#r6f" x="1229"/><use href="#r70" x="1808"/><use href="#r65" x="2406"/><use href="#r65" x="2973"/><use href="#r2c" x="3540"/><use href="#r54" x="3997"/><use href="#r69" x="4575"/><use href="#r6b" x="4819"/><use href="#r54" x="5409"/><use href="#r6f" x="5987"/><use href="#r6b" x="6566"/><use href="#r53" x="7406"/><use href="#r68" x="8054"/><use href="#r6f" x="8635"/><use href="#r70" x="9214"/><use href="#rb7" x="10062"/><use href="#r4c" x="10519"/><use href="#r61" x="11099"/><use href="#r7a" x="11669"/><use href="#r61" x="12218"/><use href="#r64" x="12788"/><use href="#r61" x="13386"/><use href="#r62" x="14206"/><use href="#r75" x="14804"/><use href="#r69" x="15379"/><use href="#r6c" x="15623"/><use href="#r74" x="15907"/></g><rect x="408.5" y="174.5" width="383" height="149" rx="16" fill="#0B1F3A" stroke="#1E3A5F"/><rect x="436" y="204" width="4" height="40" rx="2" fill="#0F8B8D"/><g fill="#FFFFFF" transform="translate(454 242) scale(0.048 -0.048)"><use href="#b32"/><use href="#b30" x="642"/></g><g fill="#5FC3C5" transform="translate(720.6 210) scale(0.013 -0.013)"><use href="#c51"/><use href="#c55" x="723"/><use href="#c41" x="1446"/><use href="#c4e" x="2169"/><use href="#c54" x="2892"/></g><g fill="#DCE5EE" transform="translate(436 278) scale(0.02 -0.02)"><use href="#m61"/><use href="#m75" x="584"/><use href="#m64" x="1170"/><use href="#m69" x="1781"/><use href="#m74" x="2037"/><use href="#m65" x="2449"/><use href="#m64" x="3030"/><use href="#m73" x="3884"/><use href="#m74" x="4429"/><use href="#m72" x="4841"/><use href="#m61" x="5238"/><use href="#m74" x="5822"/><use href="#m65" x="6234"/><use href="#m67" x="6815"/><use href="#m79" x="7425"/><use href="#m74" x="8222"/><use href="#m72" x="8634"/><use href="#m69" x="9031"/><use href="#m61" x="9287"/><use href="#m6c" x="9871"/><use href="#m73" x="10170"/></g><g fill="#8FA3B8" transform="translate(436 302) scale(0.017 -0.017)"><use href="#r65"/><use href="#r76" x="567"/><use href="#r65" x="1103"/><use href="#r72" x="1670"/><use href="#r79" x="2052"/><use href="#r6f" x="2839"/><use href="#r6e" x="3418"/><use href="#r65" x="3999"/><use href="#r6b" x="4816"/><use href="#r65" x="5406"/><use href="#r70" x="5973"/><use href="#r74" x="6571"/><use href="#r6f" x="7216"/><use href="#r6e" x="7795"/><use href="#r74" x="8626"/><use href="#r68" x="9021"/><use href="#r65" x="9602"/><use href="#r72" x="10419"/><use href="#r65" x="10801"/><use href="#r63" x="11368"/><use href="#r6f" x="11920"/><use href="#r72" x="12499"/><use href="#r64" x="12881"/></g><rect x="816.5" y="174.5" width="383" height="149" rx="16" fill="#0B1F3A" stroke="#1E3A5F"/><rect x="844" y="204" width="4" height="40" rx="2" fill="#0F8B8D"/><g fill="#FFFFFF" transform="translate(862 242) scale(0.048 -0.048)"><use href="#b30"/></g><g fill="#5FC3C5" transform="translate(1128.6 210) scale(0.013 -0.013)"><use href="#c51"/><use href="#c55" x="723"/><use href="#c41" x="1446"/><use href="#c4e" x="2169"/><use href="#c54" x="2892"/></g><g fill="#DCE5EE" transform="translate(844 278) scale(0.02 -0.02)"><use href="#m70"/><use href="#m72" x="611"/><use href="#m6f" x="1008"/><use href="#m6d" x="1601"/><use href="#m6f" x="2486"/><use href="#m74" x="3079"/><use href="#m65" x="3491"/><use href="#m64" x="4072"/><use href="#m74" x="4926"/><use href="#m6f" x="5338"/><use href="#m72" x="6174"/><use href="#m65" x="6571"/><use href="#m61" x="7152"/><use href="#m6c" x="7736"/><use href="#m6d" x="8278"/><use href="#m6f" x="9163"/><use href="#m6e" x="9756"/><use href="#m65" x="10347"/><use href="#m79" x="10928"/></g><g fill="#8FA3B8" transform="translate(844 302) scale(0.017 -0.017)"><use href="#r6e"/><use href="#r6f" x="581"/><use href="#r6e" x="1160"/><use href="#r65" x="1741"/><use href="#r70" x="2558"/><use href="#r61" x="3156"/><use href="#r73" x="3726"/><use href="#r73" x="4256"/><use href="#r65" x="4786"/><use href="#r64" x="5353"/><use href="#r65" x="6201"/><use href="#r76" x="6768"/><use href="#r65" x="7304"/><use href="#r72" x="7871"/><use href="#r79" x="8253"/><use href="#r67" x="9040"/><use href="#r61" x="9637"/><use href="#r74" x="10207"/><use href="#r65" x="10602"/><use href="#r63" x="11419"/><use href="#r72" x="11971"/><use href="#r69" x="12353"/><use href="#r74" x="12597"/><use href="#r65" x="12992"/><use href="#r72" x="13559"/><use href="#r69" x="13941"/><use href="#r6f" x="14185"/><use href="#r6e" x="14764"/></g><g fill="#8FA3B8" transform="translate(2 368) scale(0.015 -0.015)"><use href="#c43"/><use href="#c6f" x="600"/><use href="#c75" x="1200"/><use href="#c6e" x="1800"/><use href="#c74" x="2400"/><use href="#c65" x="3000"/><use href="#c64" x="3600"/><use href="#c31" x="4800"/><use href="#c33" x="5400"/><use href="#c53" x="6600"/><use href="#c65" x="7200"/><use href="#c70" x="7800"/><use href="#c32" x="9000"/><use href="#c30" x="9600"/><use href="#c32" x="10200"/><use href="#c36" x="10800"/><use href="#c66" x="12000"/><use href="#c72" x="12600"/><use href="#c6f" x="13200"/><use href="#c6d" x="13800"/><use href="#c47" x="15000"/><use href="#c69" x="15600"/><use href="#c74" x="16200"/><use href="#c48" x="16800"/><use href="#c75" x="17400"/><use href="#c62" x="18000"/><use href="#c61" x="19200"/><use href="#c6e" x="19800"/><use href="#c64" x="20400"/><use href="#c74" x="21600"/><use href="#c68" x="22200"/><use href="#c65" x="22800"/><use href="#c74" x="24000"/><use href="#c77" x="24600"/><use href="#c6f" x="25200"/><use href="#c70" x="26400"/><use href="#c75" x="27000"/><use href="#c62" x="27600"/><use href="#c6c" x="28200"/><use href="#c69" x="28800"/><use href="#c63" x="29400"/><use href="#c77" x="30600"/><use href="#c72" x="31200"/><use href="#c69" x="31800"/><use href="#c74" x="32400"/><use href="#c65" x="33000"/><use href="#c2d" x="33600"/><use href="#c75" x="34200"/><use href="#c70" x="34800"/><use href="#c73" x="35400"/><use href="#c2e" x="36000"/><use href="#c51" x="37200"/><use href="#c75" x="37800"/><use href="#c61" x="38400"/><use href="#c6e" x="39000"/><use href="#c74" x="39600"/><use href="#c66" x="40800"/><use href="#c69" x="41400"/><use href="#c67" x="42000"/><use href="#c75" x="42600"/><use href="#c72" x="43200"/><use href="#c65" x="43800"/><use href="#c73" x="44400"/><use href="#c61" x="45600"/><use href="#c73" x="46200"/><use href="#c6f" x="47400"/><use href="#c66" x="48000"/><use href="#c31" x="49200"/><use href="#c30" x="49800"/><use href="#c53" x="51000"/><use href="#c65" x="51600"/><use href="#c70" x="52200"/><use href="#c32" x="53400"/><use href="#c30" x="54000"/><use href="#c32" x="54600"/><use href="#c36" x="55200"/><use href="#c2e" x="55800"/></g></svg>
